<svg height="512" viewBox="0 0 74 74" width="512" xmlns="http://www.w3.org/2000/svg"><g id="line_color" data-name="line color"><g fill="#323c6b"><path d="m62.49 46.67a6.151 6.151 0 0 1 -4.59-2.132 8.181 8.181 0 0 0 -1.713-1.347.5.5 0 0 1 .471-.882 9.03 9.03 0 0 1 1.927 1.5 5.04 5.04 0 0 0 7.826-.005 6.155 6.155 0 0 1 4.589-2.134.5.5 0 0 1 0 1 5.188 5.188 0 0 0 -3.907 1.863 6.169 6.169 0 0 1 -4.603 2.137z"/><path d="m11.5 46.67a6.152 6.152 0 0 1 -4.593-2.136 5.185 5.185 0 0 0 -3.907-1.864.5.5 0 0 1 0-1 6.152 6.152 0 0 1 4.593 2.136 5.185 5.185 0 0 0 3.907 1.864 5.162 5.162 0 0 0 3.886-1.854 8.893 8.893 0 0 1 1.962-1.516.5.5 0 1 1 .464.886 8.024 8.024 0 0 0 -1.74 1.361 6.127 6.127 0 0 1 -4.572 2.123z"/><path d="m48.79 58.858a.5.5 0 0 1 -.2-.958c.133-.059.263-.121.388-.185a.5.5 0 0 1 .458.89q-.214.11-.441.21a.5.5 0 0 1 -.205.043z"/><path d="m50.9 57.518a.5.5 0 0 1 -.322-.883c.326-.273.613-.543.871-.786 1-.946 1.454-1.327 2.543-1.327s1.541.381 2.541 1.321a.5.5 0 1 1 -.686.729c-.961-.9-1.166-1.05-1.855-1.05s-.891.145-1.851 1.049c-.278.261-.579.544-.921.831a.5.5 0 0 1 -.32.116z"/><path d="m62.5 56.521a6.157 6.157 0 0 1 -4.6-2.136 5.029 5.029 0 0 0 -7.817 0 6.007 6.007 0 0 1 -9.186 0 5.027 5.027 0 0 0 -7.815 0 6 6 0 0 1 -9.183 0 5.023 5.023 0 0 0 -7.811 0 6.148 6.148 0 0 1 -4.588 2.136 6.149 6.149 0 0 1 -4.591-2.136 5.182 5.182 0 0 0 -3.909-1.864.5.5 0 0 1 0-1 6.148 6.148 0 0 1 4.591 2.136 5.183 5.183 0 0 0 3.909 1.864 5.182 5.182 0 0 0 3.9-1.864 6 6 0 0 1 9.182 0 5.024 5.024 0 0 0 7.812 0 6.007 6.007 0 0 1 9.186 0 5.027 5.027 0 0 0 7.815 0 6.009 6.009 0 0 1 9.188 0 5.032 5.032 0 0 0 7.819 0 6.157 6.157 0 0 1 4.598-2.136.5.5 0 0 1 0 1 5.19 5.19 0 0 0 -3.91 1.864 6.157 6.157 0 0 1 -4.59 2.136z"/><path d="m11.5 69.376a8.731 8.731 0 0 1 -3.135-.556.5.5 0 0 1 .357-.934 7.638 7.638 0 0 0 2.777.49 7.946 7.946 0 0 0 2.243-.309.5.5 0 0 1 .282.959 8.931 8.931 0 0 1 -2.524.35z"/><path d="m15.827 68.163a.5.5 0 0 1 -.267-.923c.134-.084.263-.171.387-.259a.5.5 0 0 1 .577.816c-.138.1-.282.194-.431.289a.5.5 0 0 1 -.266.077z"/><path d="m62.5 66.376a6.157 6.157 0 0 1 -4.6-2.136 5.029 5.029 0 0 0 -7.817 0 6.007 6.007 0 0 1 -9.186 0 5.027 5.027 0 0 0 -7.815 0 6 6 0 0 1 -9.183 0 5.023 5.023 0 0 0 -7.811 0 6.148 6.148 0 0 1 -4.588 2.136 6.149 6.149 0 0 1 -4.594-2.136 5.182 5.182 0 0 0 -3.906-1.864.5.5 0 0 1 0-1 6.148 6.148 0 0 1 4.591 2.136 5.183 5.183 0 0 0 3.909 1.864 5.182 5.182 0 0 0 3.9-1.864 6 6 0 0 1 9.182 0 5.024 5.024 0 0 0 7.812 0 6.007 6.007 0 0 1 9.186 0 5.027 5.027 0 0 0 7.815 0 6.009 6.009 0 0 1 9.188 0 5.032 5.032 0 0 0 7.819 0 6.157 6.157 0 0 1 4.598-2.136.5.5 0 0 1 0 1 5.19 5.19 0 0 0 -3.91 1.864 6.157 6.157 0 0 1 -4.59 2.136z"/></g><path d="m57.25 37a20.184 20.184 0 0 1 -.83 5.75 4.926 4.926 0 0 0 -2.43-.58c-4.25 0-4.25 4-8.5 4s-4.25-4-8.5-4-4.25 4-8.5 4-4.25-4-8.5-4a4.876 4.876 0 0 0 -2.41.57 20.249 20.249 0 1 1 39.67-5.74z" fill="#fed19a"/><path d="m45.49 46.67a6.152 6.152 0 0 1 -4.59-2.136 5.027 5.027 0 0 0 -7.814 0 6.006 6.006 0 0 1 -9.186 0 5.185 5.185 0 0 0 -3.91-1.864 4.41 4.41 0 0 0 -2.17.509l-.543.3-.176-.594a20.749 20.749 0 1 1 39.8.01l-.176.594-.543-.3a4.445 4.445 0 0 0 -2.189-.519 5.185 5.185 0 0 0 -3.907 1.864 6.152 6.152 0 0 1 -4.596 2.136zm-8.5-5a6.152 6.152 0 0 1 4.593 2.136 5.027 5.027 0 0 0 7.814 0 6.152 6.152 0 0 1 4.593-2.136 5.643 5.643 0 0 1 2.107.377 19.751 19.751 0 1 0 -38.2-.009 5.636 5.636 0 0 1 2.088-.368 6.152 6.152 0 0 1 4.593 2.136 5.027 5.027 0 0 0 7.814 0 6.152 6.152 0 0 1 4.598-2.136z" fill="#323c6b"/><path d="m37 16.76a20.208 20.208 0 0 0 -15.739 7.513 20.194 20.194 0 0 1 32.86 17.9 4.9 4.9 0 0 1 2.3.572 20.252 20.252 0 0 0 -19.421-25.985z" fill="#f4bb87"/><g fill="#323c6b"><path d="m37 12.419a.5.5 0 0 1 -.5-.5v-6.169a.5.5 0 0 1 1 0v6.169a.5.5 0 0 1 -.5.5z"/><path d="m30.512 13.3a.5.5 0 0 1 -.482-.371l-.878-3.277a.5.5 0 1 1 .966-.259l.882 3.281a.5.5 0 0 1 -.483.629z"/><path d="m24.476 15.837a.5.5 0 0 1 -.434-.25l-1.7-2.938a.5.5 0 0 1 .866-.5l1.7 2.938a.5.5 0 0 1 -.433.75z"/><path d="m15.336 25.06a.5.5 0 0 1 -.25-.067l-2.938-1.7a.5.5 0 0 1 .5-.866l2.938 1.7a.5.5 0 0 1 -.25.933z"/><path d="m12.86 31.12a.5.5 0 0 1 -.13-.017l-3.277-.878a.5.5 0 0 1 .259-.966l3.277.878a.5.5 0 0 1 -.129.983z"/><path d="m61.372 31.12a.5.5 0 0 1 -.129-.983l3.277-.878a.5.5 0 0 1 .259.966l-3.279.875a.5.5 0 0 1 -.128.02z"/><path d="m58.895 25.06a.5.5 0 0 1 -.25-.933l2.938-1.7a.5.5 0 0 1 .5.866l-2.938 1.7a.5.5 0 0 1 -.25.067z"/><path d="m49.756 15.837a.5.5 0 0 1 -.433-.75l1.7-2.938a.5.5 0 0 1 .866.5l-1.7 2.938a.5.5 0 0 1 -.433.25z"/><path d="m43.719 13.3a.5.5 0 0 1 -.483-.629l.878-3.271a.5.5 0 0 1 .966.259l-.88 3.274a.5.5 0 0 1 -.481.367z"/><path d="m11.919 37.5h-6.169a.5.5 0 0 1 0-1h6.169a.5.5 0 0 1 0 1z"/><path d="m68.25 37.5h-6.169a.5.5 0 0 1 0-1h6.169a.5.5 0 0 1 0 1z"/><path d="m19.265 19.765a.5.5 0 0 1 -.354-.146l-4.633-4.633a.5.5 0 0 1 .707-.707l4.633 4.633a.5.5 0 0 1 -.354.854z"/><path d="m54.735 19.765a.5.5 0 0 1 -.354-.854l4.633-4.633a.5.5 0 0 1 .707.707l-4.633 4.633a.5.5 0 0 1 -.353.147z"/><path d="m45.49 46.67a6.152 6.152 0 0 1 -4.59-2.136 5.027 5.027 0 0 0 -7.814 0 6.006 6.006 0 0 1 -9.186 0 5.185 5.185 0 0 0 -3.91-1.864 4.41 4.41 0 0 0 -2.17.509l-.543.3-.176-.594a20.749 20.749 0 1 1 39.8.01l-.176.594-.543-.3a4.445 4.445 0 0 0 -2.189-.519 5.185 5.185 0 0 0 -3.907 1.864 6.152 6.152 0 0 1 -4.596 2.136zm-8.5-5a6.152 6.152 0 0 1 4.593 2.136 5.027 5.027 0 0 0 7.814 0 6.152 6.152 0 0 1 4.593-2.136 5.643 5.643 0 0 1 2.107.377 19.751 19.751 0 1 0 -38.2-.009 5.636 5.636 0 0 1 2.088-.368 6.152 6.152 0 0 1 4.593 2.136 5.027 5.027 0 0 0 7.814 0 6.152 6.152 0 0 1 4.598-2.136z"/></g><path d="m25.661 25.711-.044-.039a.751.751 0 0 0 -1.057.1 3.466 3.466 0 0 0 -.449.608.751.751 0 0 0 1.256.823 2.38 2.38 0 0 1 .352-.475.751.751 0 0 0 -.058-1.017z" fill="#eeefee"/><path d="m23.951 28.738a.752.752 0 0 0 -1.224.174 21.708 21.708 0 0 0 -2.287 9.558.751.751 0 0 0 1.47-.309 21.45 21.45 0 0 1 2.161-8.577.751.751 0 0 0 -.12-.846z" fill="#eeefee"/></g></svg>